<svg id="visual" viewBox="0 0 900 600" width="900" height="600" xmlns="http://www.w3.org/2000/svg" xmlns:xlink="http://www.w3.org/1999/xlink" version="1.1"><path d="M0 70L21.5 68.5C43 67 86 64 128.8 64C171.7 64 214.3 67 257.2 77.2C300 87.3 343 104.7 385.8 103.2C428.7 101.7 471.3 81.3 514.2 85C557 88.7 600 116.3 642.8 120C685.7 123.7 728.3 103.3 771.2 89.5C814 75.7 857 68.3 878.5 64.7L900 61L900 0L878.5 0C857 0 814 0 771.2 0C728.3 0 685.7 0 642.8 0C600 0 557 0 514.2 0C471.3 0 428.7 0 385.8 0C343 0 300 0 257.2 0C214.3 0 171.7 0 128.8 0C86 0 43 0 21.5 0L0 0Z" fill="#e696ac" stroke-linecap="round" stroke-linejoin="miter"></path></svg>