<svg id="visual" viewBox="0 0 900 600" width="900" height="600" xmlns="http://www.w3.org/2000/svg" xmlns:xlink="http://www.w3.org/1999/xlink" version="1.1"><path d="M0 528L21.5 529.5C43 531 86 534 128.8 534C171.7 534 214.3 531 257.2 520.8C300 510.7 343 493.3 385.8 494.8C428.7 496.3 471.3 516.7 514.2 513C557 509.3 600 481.7 642.8 478C685.7 474.3 728.3 494.7 771.2 508.5C814 522.3 857 529.7 878.5 533.3L900 537L900 601L878.5 601C857 601 814 601 771.2 601C728.3 601 685.7 601 642.8 601C600 601 557 601 514.2 601C471.3 601 428.7 601 385.8 601C343 601 300 601 257.2 601C214.3 601 171.7 601 128.8 601C86 601 43 601 21.5 601L0 601Z" fill="#e696ac" stroke-linecap="round" stroke-linejoin="miter"></path></svg>