<svg id="visual" viewBox="0 0 900 600" width="900" height="600" xmlns="http://www.w3.org/2000/svg" xmlns:xlink="http://www.w3.org/1999/xlink" version="1.1"><rect x="0" y="0" width="900" height="600" fill="#ECE7E9"></rect><defs><linearGradient id="grad1_0" x1="33.3%" y1="100%" x2="100%" y2="0%"><stop offset="20%" stop-color="#ece7e9" stop-opacity="1"></stop><stop offset="80%" stop-color="#ece7e9" stop-opacity="1"></stop></linearGradient></defs><defs><linearGradient id="grad2_0" x1="0%" y1="100%" x2="66.7%" y2="0%"><stop offset="20%" stop-color="#ece7e9" stop-opacity="1"></stop><stop offset="80%" stop-color="#ece7e9" stop-opacity="1"></stop></linearGradient></defs><g transform="translate(900, 600)"><path d="M-189.3 0C-184.4 -33.2 -179.5 -66.4 -163.9 -94.6C-148.4 -122.9 -122.1 -146.1 -93 -161.1C-63.9 -176 -31.9 -182.7 0 -189.3L0 0Z" fill="#e696ac"></path></g><g transform="translate(0, 0)"><path d="M189.3 0C184.8 33.9 180.3 67.8 163.9 94.6C147.6 121.5 119.3 141.3 90 155.9C60.7 170.5 30.3 179.9 0 189.3L0 0Z" fill="#e696ac"></path></g></svg>